<?xml version="1.0" encoding="UTF-8" standalone="no"?>
<!DOCTYPE svg PUBLIC "-//W3C//DTD SVG 1.1//EN"
 "http://www.w3.org/Graphics/SVG/1.1/DTD/svg11.dtd">
<!-- Generated by graphviz version 2.40.1 (20161225.0304)
 -->
<!-- Title: %3 Pages: 1 -->
<svg width="1081pt" height="476pt"
 viewBox="0.00 0.00 1080.71 476.00" xmlns="http://www.w3.org/2000/svg" xmlns:xlink="http://www.w3.org/1999/xlink">
<g id="graph0" class="graph" transform="scale(1 1) rotate(0) translate(4 472)">
<title>%3</title>
<polygon fill="#ffffff" stroke="transparent" points="-4,4 -4,-472 1076.7134,-472 1076.7134,4 -4,4"/>
<!-- [root] module.servers.aws_instance.web (expand) -->
<g id="node1" class="node">
<title>[root] module.servers.aws_instance.web (expand)</title>
<polygon fill="none" stroke="#000000" points="655.2849,-180 453.2849,-180 453.2849,-144 655.2849,-144 655.2849,-180"/>
<text text-anchor="middle" x="554.2849" y="-158.3" font-family="Times,serif" font-size="14.00" fill="#000000">module.servers.aws_instance.web</text>
</g>
<!-- [root] module.servers.data.aws_ami.ubuntu (expand) -->
<g id="node2" class="node">
<title>[root] module.servers.data.aws_ami.ubuntu (expand)</title>
<polygon fill="none" stroke="#000000" points="760.2849,-108 540.2849,-108 540.2849,-72 760.2849,-72 760.2849,-108"/>
<text text-anchor="middle" x="650.2849" y="-86.3" font-family="Times,serif" font-size="14.00" fill="#000000">module.servers.data.aws_ami.ubuntu</text>
</g>
<!-- [root] module.servers.aws_instance.web (expand)&#45;&gt;[root] module.servers.data.aws_ami.ubuntu (expand) -->
<g id="edge5" class="edge">
<title>[root] module.servers.aws_instance.web (expand)&#45;&gt;[root] module.servers.data.aws_ami.ubuntu (expand)</title>
<path fill="none" stroke="#000000" d="M578.5097,-143.8314C590.4477,-134.8779 605.0105,-123.9558 617.8909,-114.2955"/>
<polygon fill="#000000" stroke="#000000" points="620.1678,-116.9629 626.0678,-108.1628 615.9678,-111.3629 620.1678,-116.9629"/>
</g>
<!-- [root] module.servers.var.servers (expand) -->
<g id="node9" class="node">
<title>[root] module.servers.var.servers (expand)</title>
<ellipse fill="none" stroke="#000000" cx="360.2849" cy="-90" rx="161.6714" ry="18"/>
<text text-anchor="middle" x="360.2849" y="-86.3" font-family="Times,serif" font-size="14.00" fill="#000000">[root] module.servers.var.servers (expand)</text>
</g>
<!-- [root] module.servers.aws_instance.web (expand)&#45;&gt;[root] module.servers.var.servers (expand) -->
<g id="edge6" class="edge">
<title>[root] module.servers.aws_instance.web (expand)&#45;&gt;[root] module.servers.var.servers (expand)</title>
<path fill="none" stroke="#000000" d="M505.3305,-143.8314C478.3204,-133.807 444.661,-121.3149 416.5684,-110.8887"/>
<polygon fill="#000000" stroke="#000000" points="417.4768,-107.4926 406.8838,-107.2945 415.0412,-114.0553 417.4768,-107.4926"/>
</g>
<!-- [root] provider[&quot;registry.terraform.io/hashicorp/aws&quot;].us1 -->
<g id="node4" class="node">
<title>[root] provider[&quot;registry.terraform.io/hashicorp/aws&quot;].us1</title>
<polygon fill="none" stroke="#000000" points="711.2849,-36 437.4671,-18 711.2849,0 985.1026,-18 711.2849,-36"/>
<text text-anchor="middle" x="711.2849" y="-14.3" font-family="Times,serif" font-size="14.00" fill="#000000">provider[&quot;registry.terraform.io/hashicorp/aws&quot;].us1</text>
</g>
<!-- [root] module.servers.data.aws_ami.ubuntu (expand)&#45;&gt;[root] provider[&quot;registry.terraform.io/hashicorp/aws&quot;].us1 -->
<g id="edge8" class="edge">
<title>[root] module.servers.data.aws_ami.ubuntu (expand)&#45;&gt;[root] provider[&quot;registry.terraform.io/hashicorp/aws&quot;].us1</title>
<path fill="none" stroke="#000000" d="M665.6778,-71.8314C672.9936,-63.1962 681.8609,-52.7299 689.8244,-43.3304"/>
<polygon fill="#000000" stroke="#000000" points="692.7345,-45.31 696.5282,-35.4177 687.3936,-40.7851 692.7345,-45.31"/>
</g>
<!-- [root] module.servers (expand) -->
<g id="node10" class="node">
<title>[root] module.servers (expand)</title>
<ellipse fill="none" stroke="#000000" cx="298.2849" cy="-18" rx="120.7786" ry="18"/>
<text text-anchor="middle" x="298.2849" y="-14.3" font-family="Times,serif" font-size="14.00" fill="#000000">[root] module.servers (expand)</text>
</g>
<!-- [root] module.servers.data.aws_ami.ubuntu (expand)&#45;&gt;[root] module.servers (expand) -->
<g id="edge7" class="edge">
<title>[root] module.servers.data.aws_ami.ubuntu (expand)&#45;&gt;[root] module.servers (expand)</title>
<path fill="none" stroke="#000000" d="M561.9148,-71.9243C505.9331,-60.4735 434.0709,-45.7744 379.5177,-34.6158"/>
<polygon fill="#000000" stroke="#000000" points="380.0391,-31.1501 369.5405,-32.575 378.6363,-38.0081 380.0391,-31.1501"/>
</g>
<!-- [root] output.ip_address -->
<g id="node3" class="node">
<title>[root] output.ip_address</title>
<polygon fill="none" stroke="#000000" points="494.7849,-324 387.7849,-324 387.7849,-288 500.7849,-288 500.7849,-318 494.7849,-324"/>
<polyline fill="none" stroke="#000000" points="494.7849,-324 494.7849,-318 "/>
<polyline fill="none" stroke="#000000" points="500.7849,-318 494.7849,-318 "/>
<text text-anchor="middle" x="444.2849" y="-302.3" font-family="Times,serif" font-size="14.00" fill="#000000">output.ip_address</text>
</g>
<!-- [root] module.servers.output.ip_address (expand) -->
<g id="node7" class="node">
<title>[root] module.servers.output.ip_address (expand)</title>
<ellipse fill="none" stroke="#000000" cx="384.2849" cy="-234" rx="185.7671" ry="18"/>
<text text-anchor="middle" x="384.2849" y="-230.3" font-family="Times,serif" font-size="14.00" fill="#000000">[root] module.servers.output.ip_address (expand)</text>
</g>
<!-- [root] output.ip_address&#45;&gt;[root] module.servers.output.ip_address (expand) -->
<g id="edge12" class="edge">
<title>[root] output.ip_address&#45;&gt;[root] module.servers.output.ip_address (expand)</title>
<path fill="none" stroke="#000000" d="M429.1444,-287.8314C422.1632,-279.454 413.7458,-269.3531 406.0973,-260.1749"/>
<polygon fill="#000000" stroke="#000000" points="408.7199,-257.8548 399.6293,-252.4133 403.3424,-262.3362 408.7199,-257.8548"/>
</g>
<!-- [root] meta.count&#45;boundary (EachMode fixup) -->
<g id="node5" class="node">
<title>[root] meta.count&#45;boundary (EachMode fixup)</title>
<ellipse fill="none" stroke="#000000" cx="444.2849" cy="-378" rx="176.5689" ry="18"/>
<text text-anchor="middle" x="444.2849" y="-374.3" font-family="Times,serif" font-size="14.00" fill="#000000">[root] meta.count&#45;boundary (EachMode fixup)</text>
</g>
<!-- [root] meta.count&#45;boundary (EachMode fixup)&#45;&gt;[root] output.ip_address -->
<g id="edge2" class="edge">
<title>[root] meta.count&#45;boundary (EachMode fixup)&#45;&gt;[root] output.ip_address</title>
<path fill="none" stroke="#000000" d="M444.2849,-359.8314C444.2849,-352.131 444.2849,-342.9743 444.2849,-334.4166"/>
<polygon fill="#000000" stroke="#000000" points="447.785,-334.4132 444.2849,-324.4133 440.785,-334.4133 447.785,-334.4132"/>
</g>
<!-- [root] module.servers (close) -->
<g id="node6" class="node">
<title>[root] module.servers (close)</title>
<ellipse fill="none" stroke="#000000" cx="256.2849" cy="-306" rx="113.9803" ry="18"/>
<text text-anchor="middle" x="256.2849" y="-302.3" font-family="Times,serif" font-size="14.00" fill="#000000">[root] module.servers (close)</text>
</g>
<!-- [root] meta.count&#45;boundary (EachMode fixup)&#45;&gt;[root] module.servers (close) -->
<g id="edge1" class="edge">
<title>[root] meta.count&#45;boundary (EachMode fixup)&#45;&gt;[root] module.servers (close)</title>
<path fill="none" stroke="#000000" d="M398.7753,-360.5708C371.8485,-350.2584 337.6113,-337.1463 309.4462,-326.3597"/>
<polygon fill="#000000" stroke="#000000" points="310.3494,-322.9577 299.759,-322.6497 307.8458,-329.4947 310.3494,-322.9577"/>
</g>
<!-- [root] module.servers (close)&#45;&gt;[root] module.servers.output.ip_address (expand) -->
<g id="edge3" class="edge">
<title>[root] module.servers (close)&#45;&gt;[root] module.servers.output.ip_address (expand)</title>
<path fill="none" stroke="#000000" d="M287.2701,-288.5708C304.3105,-278.9856 325.651,-266.9816 343.9748,-256.6744"/>
<polygon fill="#000000" stroke="#000000" points="345.6959,-259.7221 352.6958,-251.7689 342.2641,-253.621 345.6959,-259.7221"/>
</g>
<!-- [root] module.servers.var.image_id (expand) -->
<g id="node8" class="node">
<title>[root] module.servers.var.image_id (expand)</title>
<ellipse fill="none" stroke="#000000" cx="170.2849" cy="-162" rx="170.0701" ry="18"/>
<text text-anchor="middle" x="170.2849" y="-158.3" font-family="Times,serif" font-size="14.00" fill="#000000">[root] module.servers.var.image_id (expand)</text>
</g>
<!-- [root] module.servers (close)&#45;&gt;[root] module.servers.var.image_id (expand) -->
<g id="edge4" class="edge">
<title>[root] module.servers (close)&#45;&gt;[root] module.servers.var.image_id (expand)</title>
<path fill="none" stroke="#000000" d="M226.2181,-288.468C212.9527,-279.2443 198.3466,-266.772 189.2849,-252 177.8538,-233.3655 173.2151,-208.9248 171.3731,-190.2161"/>
<polygon fill="#000000" stroke="#000000" points="174.8605,-189.9173 170.5967,-180.2183 167.8815,-190.4593 174.8605,-189.9173"/>
</g>
<!-- [root] module.servers.output.ip_address (expand)&#45;&gt;[root] module.servers.aws_instance.web (expand) -->
<g id="edge9" class="edge">
<title>[root] module.servers.output.ip_address (expand)&#45;&gt;[root] module.servers.aws_instance.web (expand)</title>
<path fill="none" stroke="#000000" d="M425.8716,-216.3868C448.8678,-206.6472 477.6591,-194.4533 502.1484,-184.0813"/>
<polygon fill="#000000" stroke="#000000" points="503.8066,-187.1801 511.6498,-180.0572 501.0766,-180.7343 503.8066,-187.1801"/>
</g>
<!-- [root] module.servers.var.image_id (expand)&#45;&gt;[root] module.servers (expand) -->
<g id="edge10" class="edge">
<title>[root] module.servers.var.image_id (expand)&#45;&gt;[root] module.servers (expand)</title>
<path fill="none" stroke="#000000" d="M169.6608,-143.8625C169.9148,-124.1931 173.1412,-92.8249 189.2849,-72 200.6933,-57.2835 217.1733,-46.2985 233.8781,-38.2204"/>
<polygon fill="#000000" stroke="#000000" points="235.4819,-41.3364 243.1509,-34.0264 232.5971,-34.9585 235.4819,-41.3364"/>
</g>
<!-- [root] module.servers.var.servers (expand)&#45;&gt;[root] module.servers (expand) -->
<g id="edge11" class="edge">
<title>[root] module.servers.var.servers (expand)&#45;&gt;[root] module.servers (expand)</title>
<path fill="none" stroke="#000000" d="M344.6397,-71.8314C337.3148,-63.3251 328.4599,-53.0419 320.4602,-43.752"/>
<polygon fill="#000000" stroke="#000000" points="322.8878,-41.2073 313.7103,-35.9134 317.5834,-45.775 322.8878,-41.2073"/>
</g>
<!-- [root] provider[&quot;registry.terraform.io/hashicorp/aws&quot;].us1 (close) -->
<g id="node11" class="node">
<title>[root] provider[&quot;registry.terraform.io/hashicorp/aws&quot;].us1 (close)</title>
<ellipse fill="none" stroke="#000000" cx="830.2849" cy="-234" rx="242.357" ry="18"/>
<text text-anchor="middle" x="830.2849" y="-230.3" font-family="Times,serif" font-size="14.00" fill="#000000">[root] provider[&quot;registry.terraform.io/hashicorp/aws&quot;].us1 (close)</text>
</g>
<!-- [root] provider[&quot;registry.terraform.io/hashicorp/aws&quot;].us1 (close)&#45;&gt;[root] module.servers.aws_instance.web (expand) -->
<g id="edge13" class="edge">
<title>[root] provider[&quot;registry.terraform.io/hashicorp/aws&quot;].us1 (close)&#45;&gt;[root] module.servers.aws_instance.web (expand)</title>
<path fill="none" stroke="#000000" d="M763.8248,-216.6626C724.5447,-206.4156 674.5761,-193.3803 633.2876,-182.6094"/>
<polygon fill="#000000" stroke="#000000" points="634.0944,-179.2028 623.5348,-180.0652 632.3274,-185.9761 634.0944,-179.2028"/>
</g>
<!-- [root] root -->
<g id="node12" class="node">
<title>[root] root</title>
<ellipse fill="none" stroke="#000000" cx="546.2849" cy="-450" rx="47.3916" ry="18"/>
<text text-anchor="middle" x="546.2849" y="-446.3" font-family="Times,serif" font-size="14.00" fill="#000000">[root] root</text>
</g>
<!-- [root] root&#45;&gt;[root] meta.count&#45;boundary (EachMode fixup) -->
<g id="edge14" class="edge">
<title>[root] root&#45;&gt;[root] meta.count&#45;boundary (EachMode fixup)</title>
<path fill="none" stroke="#000000" d="M523.6478,-434.0209C510.3028,-424.6009 493.1589,-412.4993 478.222,-401.9556"/>
<polygon fill="#000000" stroke="#000000" points="479.916,-398.8672 469.7279,-395.9597 475.8791,-404.586 479.916,-398.8672"/>
</g>
<!-- [root] root&#45;&gt;[root] provider[&quot;registry.terraform.io/hashicorp/aws&quot;].us1 (close) -->
<g id="edge15" class="edge">
<title>[root] root&#45;&gt;[root] provider[&quot;registry.terraform.io/hashicorp/aws&quot;].us1 (close)</title>
<path fill="none" stroke="#000000" d="M571.7582,-434.6352C588.6659,-424.1927 611.1788,-409.816 630.2849,-396 693.6681,-350.1665 763.8827,-291.2685 801.9507,-258.6027"/>
<polygon fill="#000000" stroke="#000000" points="804.275,-261.22 809.572,-252.0444 799.7091,-255.9141 804.275,-261.22"/>
</g>
</g>
</svg>
